<svg version="1.1" width="20px" height="20px" xmlns="http://www.w3.org/2000/svg" viewBox="50 111.5 512 512">
	<path d="M501.6,428.5c0.6,11.9-8.8,21.8-17.2,30.5l-0.2,0.2c-11.9,12.5-23.9,25.3-35.5,37.7c-22.7,24.2-46.2,49.3-69.9,73.4
		c-34.2,34.8-74.9,53.2-117.8,53.2c-21.1,0-42.5-4.5-63.6-13.3c-16.4-6.9-31.3-15.9-44.4-26.9c-13.1-11.1-24.4-24.1-33.5-38.8
		c-18.8-30.3-28.3-66.8-28.2-108.4c0.1-19.5,5-39.5,14.7-59.5c8.2-16.9,19.7-33.7,34.3-50.2c22.5-25.3,46.3-50.1,69.4-74.2
		c8.8-9.2,18-18.7,26.9-28.1c22.2-23.4,44.9-47.1,67.4-70.3c26.4-27.2,59.5-42.2,93.3-42.2c26.9,0,52.6,9.4,74.3,27.2
		c13.8,11.3,25.1,25.4,33.6,41.9c8.1,15.9,13.3,33.5,14.9,51.1c3.1,33-6.1,64.1-25.7,87.4c-52.9,62.8-110.4,121-169.6,179.9
		c-13.2,13.2-30.1,20.1-48.8,20.1c-20,0-40.4-8-57.4-22.6c-16.4-14.1-26.9-34.8-28.6-56.8c-3-37.6,26.3-69.3,49.9-94.8
		c1.9-2.1,3.9-4.2,5.7-6.2c15.9-17.3,32.7-34.2,49-50.5c14.2-14.2,28.8-28.9,42.7-43.8c5.3-5.7,12-8.8,18.9-8.8
		c6.4,0,12.5,2.7,17.5,7.7c8.4,8.3,9.3,16.6,8.5,22.1c-0.9,6.5-4.5,13.1-10.7,19.7c-22.3,23.6-45,47.6-66.9,70.8
		c-11.2,11.8-22.3,23.5-33.5,35.3c-1.6,1.7-3.3,3.4-4.9,5.1c-4.9,5-9.5,9.7-13.4,14.9c-13.2,17.8-11.9,33.8,3.8,47.8
		c5.6,5,11,7.4,16.6,7.4c7.4,0,15.5-4.5,24-13.5c13.2-13.9,26.8-28,39.8-41.7c35.8-37.4,72.8-76,108-115.1
		c15.4-17.1,23.2-38.3,22.1-59.7c-1.1-20.5-10.4-39.6-26.2-53.7c-13.4-12-27.8-18.1-43-18.1c-20.2,0-41.5,11.1-61.6,32.1
		c-4.9,5.1-9.8,10.3-14.8,15.4c-47.2,49.2-96,100.2-142.8,151.4c-35.1,38.4-43.5,84.4-24.4,132.9c17,43,49.5,68.5,94,73.5
		c4.1,0.5,8.1,0.7,12.1,0.7c29,0,55.7-12.6,79.4-37.3c17.6-18.4,35.5-37.2,52.7-55.4c17.3-18.2,35.1-37,52.8-55.4c1-1,1.9-2,2.9-3.1
		c7.2-7.8,15.4-16.6,26.5-16.6c5.5,0,11,2.3,16.3,6.8C497.7,415.6,501.2,421.9,501.6,428.5z"></path>
</svg>