<svg width="20px" height="20px" version="1.1" viewBox="0 0 135.46 135.46" xmlns="http://www.w3.org/2000/svg">
    <path d="m67.387 38.614c-3.3406 0.04434-6.1803 2.2214-8.2625 4.657-12.66 12.674-25.367 25.302-37.931 38.068-3.322 4.1841-2.0716 11.153 2.5971 13.814 3.7814 2.3903 9.2639 1.6723 12.16-1.7909 10.614-10.562 21.195-21.154 31.782-31.744 11.059 11.044 22.068 22.137 33.227 33.078 4.198 3.3084 11.17 2.0337 13.809-2.6521 2.29-3.687 1.695-8.9654-1.5768-11.888-4.6831-4.7192-9.402-9.4059-14.09-14.123-8.5287-8.5337-17.05-17.082-25.674-25.518-1.7139-1.3073-3.8911-1.9705-6.041-1.901z" fill-rule="evenodd" stroke-width="2.1166"></path>
</svg>