<svg xmlns="http://www.w3.org/2000/svg" x="0px" y="0px" viewBox="0 0 1024 763" xml:space="preserve" height=".525em">
    <path style="fill:#ffaaaa;" d="M276.5,375.3L10.9,60C-9.1,36.3,7.8,0.2,38.7,0.2h219.1c10.7,0,20.8,4.7,27.7,12.8l309.2,362.6     c1.6,1.8,2.4,4.2,2.4,6.6l0,0c0,2.4-0.8,4.7-2.4,6.5L293.9,750.1c-6.9,8.3-17.2,13.1-28,13.1H38.3c-30.9,0-47.7-36-27.9-59.7     l266.1-318.3c1.2-1.4,1.8-3.1,1.8-4.9v0C278.3,378.5,277.7,376.7,276.5,375.3z"></path>
    <path style="fill:#ffaaaa;" d="M701.5,375.2L435.8,59.8C415.9,36.2,432.7,0,463.6,0h219.1c10.7,0,20.8,4.7,27.7,12.8l309.2,362.6     c1.6,1.8,2.4,4.2,2.4,6.6v0c0,2.4-0.8,4.7-2.4,6.5L718.8,749.9c-6.9,8.3-17.2,13.1-28,13.1H463.3c-30.9,0-47.7-36-27.9-59.7     L701.5,385c1.2-1.4,1.8-3.1,1.8-4.9v0C703.3,378.3,702.6,376.6,701.5,375.2z"></path>
</svg>