<svg width="18px" height="18px" version="1.1" viewBox="0 0 135.47 135.47" xmlns="http://www.w3.org/2000/svg">
    <path d="m67.733 9.2284c-0.45652 0-0.91304 0.0326-1.3658 0.09818-0.30184 0.04373-0.60177 0.10231-0.89917 0.17518-0.4461 0.10932-0.88636 0.25143-1.3162 0.42633-0.28656 0.1166-0.56835 0.2475-0.84491 0.39326-0.82967 0.43726-1.6093 1.0057-2.3089 1.7053l-34.425 34.425c-3.7313 3.7313-3.7313 9.7387 0 13.47 3.7313 3.7313 9.7392 3.7313 13.47 0l18.164-18.164v74.66c0 5.2768 4.2482 9.525 9.525 9.525 5.2768 0 9.525-4.2482 9.525-9.525v-74.66l18.164 18.164c3.7313 3.7313 9.7392 3.7313 13.47 0 3.7313-3.7313 3.7313-9.7387 0-13.47l-34.425-34.425c-0.69962-0.69962-1.4792-1.2681-2.3089-1.7053-0.27656-0.14575-0.55835-0.27665-0.84491-0.39326-0.42984-0.1749-0.8701-0.31702-1.3162-0.42633-0.2974-0.07288-0.59733-0.13146-0.89917-0.17518-0.45277-0.06559-0.90929-0.09818-1.3658-0.09818z" fill-rule="evenodd" stroke-width="3.6333"></path>
</svg>